<?xml version="1.0" standalone="no"?>
<!DOCTYPE svg PUBLIC "-//W3C//DTD SVG 20010904//EN"
 "http://www.w3.org/TR/2001/REC-SVG-20010904/DTD/svg10.dtd">
<svg version="1.0" xmlns="http://www.w3.org/2000/svg"
 width="1280.000000pt" height="1280.000000pt" viewBox="0 0 1280.000000 1280.000000"
 preserveAspectRatio="xMidYMid meet">
<metadata>
Created by potrace 1.15, written by Peter Selinger 2001-2017
</metadata>
<g transform="translate(0.000000,1280.000000) scale(0.100000,-0.100000)"
fill="#C0C000 " stroke="none"> <!-- Cambia el color aquí -->
<path d="M3270 11214 c-163 -20 -217 -28 -297 -44 -985 -204 -1764 -997 -2088
-2125 -136 -476 -200 -1076 -165 -1545 75 -981 538 -1740 1505 -2463 268 -201
565 -393 1240 -802 742 -450 1222 -815 1715 -1306 253 -252 434 -458 645 -733
125 -164 193 -232 263 -264 72 -33 127 -38 193 -18 99 28 154 79 343 314 427
533 872 975 1436 1427 317 254 572 430 1140 785 893 558 1242 818 1615 1202
482 495 747 1018 846 1668 22 139 24 189 24 485 0 333 -6 433 -45 700 -115
788 -433 1463 -915 1940 -548 543 -1290 809 -2042 730 -420 -45 -822 -186
-1186 -419 -461 -295 -806 -675 -1175 -1297 -45 -74 -90 -143 -102 -154 -20
-18 -21 -18 -45 5 -13 12 -48 64 -77 114 -87 152 -215 355 -301 476 -517 737
-1195 1186 -1967 1305 -100 16 -481 28 -560 19z"/>
</g>
</svg>
